<?xml version="1.0"?>
<svg width="511.999" height="511.999" xmlns="http://www.w3.org/2000/svg" xmlns:svg="http://www.w3.org/2000/svg" enable-background="new 0 0 511.999 511.999" version="1.1" xml:space="preserve">
 <g class="layer">
  <title>Layer 1</title>
  <g id="svg_1" transform="matrix(1 0 0 1 0 0)">
   <g id="svg_2">
    <path d="m397.28,21.95l-141.28,141.28l-141.28,-141.28c-29.26,-29.27 -76.71,-29.27 -105.97,0l247.25,247.24l247.25,-247.24c-29.26,-29.27 -76.71,-29.27 -105.97,0z" fill="#f5f508" id="svg_3"/>
   </g>
  </g>
  <g id="svg_4" transform="matrix(1 0 0 1 0 0)">
   <g id="svg_5">
    <path d="m143.61,231.02c-30.99,0 -56.19,25.21 -56.19,56.2c0,30.98 25.2,56.19 56.19,56.19c30.99,0 56.2,-25.21 56.2,-56.19c0,-30.99 -25.21,-56.2 -56.2,-56.2zm0,81.17l0,0c-13.77,0 -24.98,-11.2 -24.98,-24.97c0.01,-13.78 11.21,-24.98 24.98,-24.98c13.77,0 24.98,11.21 24.98,24.98c0,13.77 -11.21,24.97 -24.98,24.97z" fill="#f5f508" id="svg_6"/>
   </g>
  </g>
  <g id="svg_7" transform="matrix(1 0 0 1 0 0)">
   <g id="svg_8">
    <path d="m368.39,231.02c-30.99,0 -56.2,25.21 -56.2,56.2c0,30.98 25.21,56.19 56.2,56.19s56.19,-25.21 56.19,-56.19c0,-30.99 -25.2,-56.2 -56.19,-56.2zm0,81.17l0,0c-13.77,0 -24.98,-11.2 -24.98,-24.97c0.01,-13.78 11.21,-24.98 24.98,-24.98c13.77,0 24.98,11.21 24.98,24.98c0,13.77 -11.21,24.97 -24.98,24.97z" fill="#f5f508" id="svg_9"/>
   </g>
  </g>
  <g id="svg_10" transform="matrix(1 0 0 1 0 0)">
   <g id="svg_11">
    <path d="m275.94,302.23l-19.94,19.94l-19.94,-19.94c-1.67,10.24 -4.99,19.92 -9.69,28.77l29.63,29.63l29.63,-29.63c-4.7,-8.85 -8.02,-18.53 -9.69,-28.77z" fill="#f5f508" id="svg_12"/>
   </g>
  </g>
  <g id="svg_13">
   <g id="svg_14">
    <path d="m256,62.44c-14.91,0 -29.47,1.47 -43.57,4.23l43.57,43.58l43.57,-43.58c-14.09,-2.77 -28.66,-4.23 -43.57,-4.23z" fill="#f5f508" id="svg_15"/>
   </g>
  </g>
  <g id="svg_16" transform="matrix(1 0 0 1 0 0)">
   <g id="svg_17">
    <path d="m431.45,146.72l-48.06,48.06c44.54,7.2 78.66,45.9 78.66,92.44c0,51.64 -42.02,93.66 -93.66,93.66c-22.26,0 -42.73,-7.83 -58.82,-20.85l-53.57,53.58l-53.58,-53.57c-16.08,13.02 -36.55,20.84 -58.81,20.84c-51.64,0 -93.66,-42.02 -93.66,-93.66c0,-46.54 34.12,-85.24 78.65,-92.44l-48.05,-48.06c-30.86,38.49 -49.33,87.33 -49.33,140.5c0,124.14 100.64,224.78 224.78,224.78s224.78,-100.64 224.78,-224.78c0,-53.17 -18.47,-102.01 -49.33,-140.5z" fill="#f5f508" id="svg_18"/>
   </g>
  </g>
  <g id="svg_19"/>
  <g id="svg_20"/>
  <g id="svg_21"/>
  <g id="svg_22"/>
  <g id="svg_23"/>
  <g id="svg_24"/>
  <g id="svg_25"/>
  <g id="svg_26"/>
  <g id="svg_27"/>
  <g id="svg_28"/>
  <g id="svg_29"/>
  <g id="svg_30"/>
  <g id="svg_31"/>
  <g id="svg_32"/>
  <g id="svg_33"/>
 </g>
</svg>